<svg xmlns="http://www.w3.org/2000/svg" xmlns:xlink="http://www.w3.org/1999/xlink" width="500" height="500" viewBox="0 0 500 500">
  <defs>
    <clipPath id="clip-logo">
      <rect width="500" height="500"/>
    </clipPath>
  </defs>
  <g id="logo" clip-path="url(#clip-logo)">
    <g id="min_ver" data-name="min ver" transform="translate(-33.98 32.31)">
      <path id="Path_1" data-name="Path 1" d="M507.392,89.026H60.54v-54.7L283.966,0,507.392,34.323Z" transform="translate(1.588)" fill="#fff"/>
      <path id="Path_2" data-name="Path 2" d="M505.166,265.321H58.98L75.1,191.57H489.065Z" transform="translate(0 170.059)" fill="#fff"/>
      <g id="Group_1" data-name="Group 1" transform="translate(86.12 91.376)">
        <path id="Path_3" data-name="Path 3" d="M223.524,66.787l10.089-11.219H176.671l-58.961,92.3v-76.8l7.849-16.385H72.43V304.89h45.28V223.652L135.628,197.1,185.347,304.89h49.618l-70.059-151.2Z" transform="translate(-72.43 -48.848)" fill="#fff"/>
        <path id="Path_4" data-name="Path 4" d="M165.35,54.68V304.89h45.3V71.065L218.5,54.68Z" transform="translate(9.16 -48.848)" fill="#fff"/>
        <path id="Path_5" data-name="Path 5" d="M296,157.161c-24.436-7.849-40.8-17.938-40.8-32.951A28.318,28.318,0,0,1,283.79,95.738c16.829,0,27.987,15.275,27.987,30.57h45.885s-1.8-74.518-75.547-74.518-72.2,67.476-71.29,79.139c.767,10.069-1.352,41.022,62.33,64.792,32.285,11.885,44.836,24.214,44.836,43.04s-15.013,31.4-31.4,31.4-36.987-11.441-36.987-38.036H205.66s.222,81.54,82.509,81.54c59.647-2.018,73.771-49.094,73.771-77.343s-10.977-60.313-65.922-79.139Z" transform="translate(37.412 -51.79)" fill="#fff"/>
      </g>
    </g>
  </g>
</svg>
